<svg xmlns="http://www.w3.org/2000/svg" viewBox="0 0 512 512" id="disc-brake">
  <path 
    d="m238.789062 158.890625c-63.039062 0-114.320312 51.28125-114.320312 114.320313 0 63.039062 51.28125 114.320312 114.320312 114.320312 63.039063 0 114.320313-51.28125 114.320313-114.320312 0-63.039063-51.28125-114.320313-114.320313-114.320313zm0 198.640625c-46.488281 0-84.320312-37.832031-84.320312-84.320312 0-46.492188 37.832031-84.320313 84.320312-84.320313 46.492188 0 84.320313 37.828125 84.320313 84.320313 0 46.488281-37.828125 84.320312-84.320313 84.320312zm0 0"
    fill="currentColor"
  ></path>
  <path 
    d="M238.789062 217.738281c-30.589843 0-55.46875 24.882813-55.46875 55.472657 0 30.589843 24.878907 55.46875 55.46875 55.46875 30.589844 0 55.472657-24.878907 55.472657-55.46875 0-30.589844-24.882813-55.472657-55.472657-55.472657zm0 80.941407c-14.050781 0-25.46875-11.417969-25.46875-25.46875 0-14.050782 11.417969-25.472657 25.46875-25.472657 14.050782 0 25.472657 11.421875 25.472657 25.472657 0 14.050781-11.421875 25.46875-25.472657 25.46875zm0 0M256.332031 434.5c0 8.746094-7.085937 15.832031-15.832031 15.832031s-15.832031-7.085937-15.832031-15.832031 7.085937-15.832031 15.832031-15.832031 15.832031 7.085937 15.832031 15.832031zm0 0M334.691406 404.0625c-4.375-7.570312-14.058594-10.160156-21.628906-5.785156s-10.164062 14.0625-5.785156 21.632812c4.375 7.570313 14.058594 10.160156 21.628906 5.785156s10.160156-14.0625 5.785156-21.632812zm0 0M387.292969 338.566406c-7.574219-4.367187-17.257813-1.765625-21.621094 5.8125-4.367187 7.574219-1.765625 17.257813 5.8125 21.621094 7.574219 4.367188 17.257813 1.765625 21.621094-5.8125 4.367187-7.574219 1.765625-17.253906-5.8125-21.621094zm0 0M169.941406 126.65625c-4.394531-7.558594-14.085937-10.125-21.644531-5.726562-7.5625 4.394531-10.125 14.085937-5.730469 21.644531 4.394532 7.558593 14.085938 10.125 21.644532 5.730469 7.558593-4.394532 10.125-14.085938 5.730468-21.648438zm0 0M105.859375 180.789062c-7.589844-4.347656-17.261719-1.71875-21.609375 5.867188-4.347656 7.589844-1.71875 17.261719 5.867188 21.609375 7.585937 4.347656 17.261718 1.722656 21.609374-5.867187 4.347657-7.585938 1.71875-17.261719-5.867187-21.609376zm0 0M93.339844 275.476562c-.035156-8.746093-7.148438-15.808593-15.894532-15.773437-8.742187.03125-15.804687 7.148437-15.773437 15.894531.035156 8.742188 7.148437 15.804688 15.894531 15.769532 8.746094-.03125 15.804688-7.148438 15.773438-15.890626zm0 0M114.003906 347.941406c-4.402344-7.554687-14.097656-10.105468-21.652344-5.703125-7.554687 4.40625-10.109374 14.101563-5.703124 21.652344 4.40625 7.554687 14.097656 10.109375 21.652343 5.703125 7.554688-4.402344 10.109375-14.097656 5.703125-21.652344zm0 0M168.121094 400.386719c-7.589844-4.335938-17.261719-1.699219-21.601563 5.894531-4.335937 7.59375-1.695312 17.261719 5.894531 21.601562 7.59375 4.335938 17.265626 1.695313 21.601563-5.894531 4.339844-7.59375 1.699219-17.265625-5.894531-21.601562zm0 0"
    fill="currentColor"
  ></path>
  <path 
    d="m431.980469 80.019531c-51.601563-51.597656-120.210938-80.019531-193.191407-80.019531h-15v34.878906c-58.140624 3.582032-112.300781 27.929688-153.847656 69.480469-45.101562 45.101563-69.941406 105.070313-69.941406 168.851563 0 63.777343 24.839844 123.75 69.941406 168.847656 45.097656 45.101562 105.070313 69.941406 168.847656 69.941406 63.78125 0 123.75-24.839844 168.851563-69.941406 40.578125-40.578125 64.75-93.1875 69.1875-149.777344h34.882813l.25-15.660156c.019531-1.132813.039062-2.269532.039062-3.410156 0-72.980469-28.421875-141.589844-80.019531-193.191407zm-15.351563 182.261719c-5.359375-88.203125-75.179687-159.28125-162.839844-166.621094v-65.199218c123.539063 7.550781 222.449219 107.75 227.972657 231.820312zm-177.839844 219.71875c-115.128906 0-208.789062-93.660156-208.789062-208.789062 0-110.089844 85.628906-200.539063 193.789062-208.25v60.078124h15c81.699219 0 148.171876 66.472657 148.171876 148.171876 0 1.238281-.011719 2.46875-.039063 3.699218l-.382813 15.371094h60.171876c-9.652344 106.21875-99.222657 189.71875-207.921876 189.71875zm0 0"
    fill="currentColor"
  ></path>
</svg>