<svg xmlns="http://www.w3.org/2000/svg" width="21" height="20" viewBox="0 0 21 20" fill="none">
  <path
    d="M10.6523 8.63672V11.5413H14.7711C14.5902 12.4754 14.0475 13.2663 13.2335 13.7981L15.7173 15.6868C17.1644 14.3777 17.9993 12.455 17.9993 10.1709C17.9993 9.63908 17.9506 9.12767 17.8601 8.6368L10.6523 8.63672Z"
    fill="white" />
  <path
    d="M3.82091 6.63867C3.29914 7.64773 3 8.78639 3 10C3 11.2136 3.29914 12.3523 3.82091 13.3613C3.82091 13.3681 6.36735 11.425 6.36735 11.425C6.21429 10.975 6.12382 10.4977 6.12382 9.99993C6.12382 9.50214 6.21429 9.02489 6.36735 8.57489L3.82091 6.63867Z"
    fill="white" />
  <path
    d="M10.6524 5.48638C11.7795 5.48638 12.7813 5.86819 13.5814 6.60457L15.773 4.45685C14.4441 3.24323 12.7188 2.5 10.6524 2.5C7.66074 2.5 5.07959 4.1841 3.82031 6.63866L6.36667 8.57504C6.97193 6.80228 8.66259 5.48638 10.6524 5.48638Z"
    fill="white" />
  <path
    d="M6.36338 11.4277L5.8032 11.848L3.82031 13.3616C5.07959 15.8093 7.66058 17.5003 10.6522 17.5003C12.7185 17.5003 14.4509 16.8321 15.7171 15.6866L13.2334 13.798C12.5516 14.248 11.6819 14.5207 10.6522 14.5207C8.66243 14.5207 6.97184 13.2048 6.36651 11.4321L6.36338 11.4277Z"
    fill="white" />
</svg>