<svg xmlns="http://www.w3.org/2000/svg" viewBox="0 0 64 64" id="suspension">
  <path fill="currentColor" d="M15.35,52.65a4,4,0,1,1,2.83-1.17A4,4,0,0,1,15.35,52.65Zm0-6a2,2,0,1,0,1.41.59A2,2,0,0,0,15.35,46.65Z"></path>
  <path fill="currentColor" d="M15.35 56.65A8 8 0 1 1 18 41.12a1 1 0 0 1 .61 1.28 1 1 0 0 1-1.28.6 5.92 5.92 0 0 0-6.25 1.41 6 6 0 0 0 0 8.48A6 6 0 0 0 21 46.64 1 1 0 1 1 22.88 46a8 8 0 0 1-7.53 10.68zM35.85 19.25a1 1 0 0 1-.7-.3 1 1 0 0 1 0-1.41L38 14.71a1 1 0 1 1 1.41 1.41L36.56 19A1 1 0 0 1 35.85 19.25zM24.54 30.56a1 1 0 0 1-.71-.29 1 1 0 0 1 0-1.42L26.66 26a1 1 0 0 1 1.42 1.42l-2.83 2.83A1 1 0 0 1 24.54 30.56zM21.71 39a1 1 0 0 1-.7-.29l-2.83-2.83a1 1 0 0 1-.3-.7 1 1 0 0 1 .3-.71L21 31.68a1 1 0 0 1 1.41 0 1 1 0 0 1 0 1.42L20.3 35.22l2.12 2.12a1 1 0 0 1 0 1.41A1 1 0 0 1 21.71 39zM30.2 24.9a1 1 0 0 1-.71-.29 1 1 0 0 1 0-1.41l2.83-2.83a1 1 0 0 1 1.41 1.41l-2.82 2.83A1 1 0 0 1 30.2 24.9zM45.75 29.15a1 1 0 0 1-.7-.3 1 1 0 0 1 0-1.41l2.83-2.83A1 1 0 1 1 49.29 26l-2.83 2.83A1 1 0 0 1 45.75 29.15zM34.44 40.46a1 1 0 0 1-.71-.29 1 1 0 0 1 0-1.42l2.83-2.83A1 1 0 0 1 38 37.34l-2.83 2.83A1 1 0 0 1 34.44 40.46zM28.78 46.12a1 1 0 0 1-.7-.3L25.25 43a1 1 0 1 1 1.41-1.41l2.12 2.12 2.13-2.12A1 1 0 1 1 32.32 43l-2.83 2.83A1 1 0 0 1 28.78 46.12zM40.1 34.8a1 1 0 0 1-.71-.29 1 1 0 0 1 0-1.41l2.83-2.83a1 1 0 0 1 1.41 1.41L40.8 34.51A1 1 0 0 1 40.1 34.8zM51.41 23.49a1 1 0 0 1-.71-.29 1 1 0 0 1 0-1.42l3.54-3.53L45.75 9.76 42.22 13.3a1 1 0 0 1-1.42-1.42l4.25-4.24a1 1 0 0 1 1.41 0l9.9 9.9a1 1 0 0 1 0 1.41L52.12 23.2A1 1 0 0 1 51.41 23.49z"></path>
  <path fill="currentColor" d="M17.7 43.06A1 1 0 0 1 17 41.35l4-4a1 1 0 1 1 1.41 1.41l-4 4A1 1 0 0 1 17.7 43.06zM21.94 47.3a1 1 0 0 1-.71-.29 1 1 0 0 1 0-1.41l4-4A1 1 0 1 1 26.66 43l-4 4A1 1 0 0 1 21.94 47.3zM34.44 45.29a3 3 0 0 1-2.12-.88L19.59 31.68a3 3 0 0 1 4.24-4.24L36.56 40.17a3 3 0 0 1 0 4.24A3 3 0 0 1 34.44 45.29zM21.71 28.56a1 1 0 0 0-.71.29 1 1 0 0 0 0 1.42L33.73 43h0a1 1 0 0 0 1.42 0 1 1 0 0 0 .29-.7 1 1 0 0 0-.29-.71L22.42 28.85A1 1 0 0 0 21.71 28.56zM40.1 39.63A3 3 0 0 1 38 38.75h0L25.25 26a3 3 0 0 1 0-4.24 3.08 3.08 0 0 1 4.24 0L42.22 34.51a3 3 0 0 1-2.12 5.12zm-.71-2.29a1 1 0 0 0 1.41 0 1 1 0 0 0 0-1.42L28.08 23.2a1 1 0 0 0-1.42 0 1 1 0 0 0-.29.7 1 1 0 0 0 .29.71zM45.75 34a3 3 0 0 1-2.12-.87h0L30.91 20.37a3 3 0 0 1 0-4.25 3.08 3.08 0 0 1 4.24 0L47.88 28.85A3 3 0 0 1 45.75 34zm-.7-2.29a1 1 0 0 0 1.41 0 1 1 0 0 0 0-1.41L33.73 17.54a1 1 0 0 0-1.41 0 1 1 0 0 0 0 1.41L45.05 31.68zM51.41 28.32a3 3 0 0 1-2.12-.88L36.56 14.71a3 3 0 1 1 4.24-4.24L53.53 23.2a3 3 0 0 1 0 4.24A3 3 0 0 1 51.41 28.32zM38.68 11.59A1 1 0 0 0 38 13.3L50.7 26h0a1 1 0 0 0 1.41 0 1 1 0 0 0 0-1.41L39.39 11.88A1 1 0 0 0 38.68 11.59z"></path>
</svg>